<svg xmlns="http://www.w3.org/2000/svg" xmlns:xlink="http://www.w3.org/1999/xlink" xmlns:svgjs="http://svgjs.com/svgjs" width="512" height="512" x="0" y="0" viewBox="0 0 512 512" style="enable-background:new 0 0 512 512" xml:space="preserve" class=""><g><linearGradient xmlns="http://www.w3.org/2000/svg" id="SVGID_1_" gradientUnits="userSpaceOnUse" x1="53.976" x2="458.024" y1="256" y2="256"><stop stop-opacity="1" stop-color="#c0f8ff" offset="0"></stop><stop stop-opacity="1" stop-color="#26c5da" offset="1"></stop></linearGradient><g xmlns="http://www.w3.org/2000/svg"><g><g><path d="m170.091.39c-68.06 4.435-134.218 61.127-111.591 135.073 18.265 59.691 84.702 87.73 134.671 115.676 47.928 26.805 98.6 60.229 112.037 117.192 9.247 39.199-2.084 84.916 22.012 117.187 42.331 56.694 124.078 13.634 130.314-47.258 5.176-50.542-31.51-94.701-65.828-132.165-33.267-36.317-70.462-71.374-99.992-110.843-27.345-36.55-41.639-81.985-5.379-118.188 8.145-8.132 17.848-16.505 14.872-29.734-9.77-43.394-97.817-49.109-131.116-46.94z" fill="url(#SVGID_1_)" data-original="url(#SVGID_1_)" style=""></path></g><g><g><g><g opacity=".1"><g><path d="m63.976 265.79h326.159c37.494 0 67.89-30.395 67.89-67.89 0-37.494-30.395-67.89-67.89-67.89h-268.27c-37.494 0-67.89 30.395-67.89 67.89v57.89c.001 5.523 4.478 10 10.001 10z" fill="#26c5da" data-original="#2626bc" style=""></path></g></g><g opacity=".1"><g><path d="m448.024 426.577h-326.159c-37.494 0-67.89-30.395-67.89-67.89 0-37.494 30.395-67.89 67.89-67.89h268.269c37.494 0 67.89 30.395 67.89 67.89v57.89c0 5.523-4.477 10-10 10z" fill="#26c5da" data-original="#2626bc" style=""></path></g></g></g><g><g><g><g><g><path d="m63.976 241.79h326.159c37.494 0 67.89-30.395 67.89-67.89 0-37.494-30.395-67.89-67.89-67.89h-268.27c-37.494 0-67.89 30.395-67.89 67.89v57.89c.001 5.523 4.478 10 10.001 10z" fill="#ffffff" data-original="#ffffff" style=""></path></g></g><g><g><ellipse cx="390.151" cy="173.9" fill="#78efff" rx="45.667" ry="45.667" transform="matrix(.16 -.987 .987 .16 156.001 531.158)" data-original="#6583fe" style="" class=""></ellipse><path d="m406.765 168.094c0-9.161-7.453-16.613-16.613-16.613-9.161 0-16.613 7.453-16.613 16.613 0 4.518 1.818 8.615 4.754 11.613-2.936 2.998-4.754 7.095-4.754 11.613 0 2.761 2.239 5 5 5s5-2.239 5-5c0-3.646 2.967-6.613 6.613-6.613 3.647 0 6.613 2.967 6.613 6.613 0 2.761 2.239 5 5 5s5-2.239 5-5c0-4.518-1.818-8.615-4.755-11.613 2.937-2.998 4.755-7.095 4.755-11.613zm-16.613-6.614c3.647 0 6.613 2.967 6.613 6.613s-2.967 6.613-6.613 6.613-6.613-2.967-6.613-6.613 2.966-6.613 6.613-6.613z" fill="#26c5da" data-original="#2626bc" style=""></path></g></g></g><g><g><g><path d="m198.24 150.915h121.52c2.762 0 5-2.239 5-5s-2.238-5-5-5h-121.52c-2.762 0-5 2.239-5 5s2.239 5 5 5z" fill="#26c5da" data-original="#2626bc" style=""></path></g><g><path d="m324.76 164.57c0 2.76-2.24 5-5 5h-211.52c-2.76 0-5-2.24-5-5s2.24-5 5-5h211.52c2.76 0 5 2.24 5 5z" fill="#26c5da" data-original="#2626bc" style=""></path></g><g><g><path d="m162.1 159.57-.4.4c-3.3 3.3-8.26 2.62-10.89-.4z" fill="#dcfdee" data-original="#dcfdee" style="" class=""></path></g></g></g><g><g><path d="m108.241 188.229h211.519c2.762 0 5-2.239 5-5s-2.238-5-5-5h-211.519c-2.762 0-5 2.239-5 5s2.238 5 5 5z" fill="#26c5da" data-original="#2626bc" style=""></path></g><g><path d="m108.241 206.885h211.519c2.762 0 5-2.239 5-5s-2.238-5-5-5h-211.519c-2.762 0-5 2.239-5 5 0 2.762 2.238 5 5 5z" fill="#26c5da" data-original="#2626bc" style=""></path></g></g></g></g><g><g><g><g><path d="m448.024 402.577h-326.159c-37.494 0-67.89-30.395-67.89-67.89 0-37.494 30.395-67.889 67.89-67.889h268.269c37.494 0 67.89 30.395 67.89 67.889v57.89c0 5.523-4.477 10-10 10z" fill="#ffffff" data-original="#ffffff" style=""></path></g></g><g><g><circle cx="121.848" cy="334.687" fill="#78efff" r="45.667" data-original="#6583fe" style="" class=""></circle><path d="m109.99 340.494c-2.936 2.998-4.755 7.095-4.755 11.613 0 2.761 2.239 5 5 5s5-2.239 5-5c0-3.647 2.967-6.613 6.613-6.613s6.613 2.967 6.613 6.613c0 2.761 2.239 5 5 5s5-2.239 5-5c0-4.518-1.818-8.615-4.755-11.613 2.936-2.998 4.755-7.095 4.755-11.613 0-9.161-7.453-16.613-16.613-16.613-9.161 0-16.613 7.453-16.613 16.613 0 4.518 1.818 8.615 4.755 11.613zm18.472-11.613c0 3.646-2.967 6.613-6.613 6.613s-6.613-2.967-6.613-6.613c0-3.647 2.967-6.613 6.613-6.613s6.613 2.966 6.613 6.613z" fill="#26c5da" data-original="#2626bc" style=""></path></g></g></g><g><g><g><path d="m313.76 311.702h-121.52c-2.762 0-5-2.239-5-5s2.238-5 5-5h121.52c2.762 0 5 2.239 5 5s-2.239 5-5 5z" fill="#26c5da" data-original="#2626bc" style=""></path></g><g><path d="m403.759 330.359h-211.519c-2.762 0-5-2.239-5-5s2.238-5 5-5h211.519c2.762 0 5 2.239 5 5s-2.238 5-5 5z" fill="#26c5da" data-original="#2626bc" style=""></path></g></g><g><g><path d="m403.759 349.016h-211.519c-2.762 0-5-2.239-5-5s2.238-5 5-5h211.519c2.762 0 5 2.239 5 5s-2.238 5-5 5z" fill="#26c5da" data-original="#2626bc" style=""></path></g><g><path d="m403.759 367.672h-211.519c-2.762 0-5-2.239-5-5s2.238-5 5-5h211.519c2.762 0 5 2.239 5 5 0 2.762-2.238 5-5 5z" fill="#26c5da" data-original="#2626bc" style=""></path></g></g></g></g></g><g fill="#6583fe"><path d="m273.948 477.081c-2.762 0-5-2.239-5-5 0-3.309-2.691-6-6-6-2.762 0-5-2.239-5-5s2.238-5 5-5c3.309 0 6-2.691 6-6 0-2.761 2.238-5 5-5s5 2.239 5 5c0 3.309 2.691 6 6 6 2.762 0 5 2.239 5 5s-2.238 5-5 5c-3.309 0-6 2.691-6 6 0 2.761-2.238 5-5 5z" fill="#78efff" data-original="#6583fe" style="" class=""></path><path d="m394.538 83.709c-2.762 0-5-2.239-5-5 0-3.309-2.691-6-6-6-2.762 0-5-2.239-5-5s2.238-5 5-5c3.309 0 6-2.692 6-6 0-2.761 2.238-5 5-5s5 2.239 5 5c0 3.309 2.691 6 6 6 2.762 0 5 2.239 5 5s-2.238 5-5 5c-3.309 0-6 2.691-6 6 0 2.762-2.238 5-5 5z" fill="#78efff" data-original="#6583fe" style="" class=""></path><path d="m222.948 461.081c-2.762 0-5-2.239-5-5 0-3.309-2.691-6-6-6-2.762 0-5-2.239-5-5s2.238-5 5-5c3.309 0 6-2.691 6-6 0-2.761 2.238-5 5-5s5 2.239 5 5c0 3.309 2.691 6 6 6 2.762 0 5 2.239 5 5s-2.238 5-5 5c-3.309 0-6 2.691-6 6 0 2.761-2.238 5-5 5z" fill="#78efff" data-original="#6583fe" style="" class=""></path><path d="m344.484 66.919c-1.279 0-2.56-.488-3.535-1.464l-11-11c-1.953-1.953-1.953-5.119 0-7.071l11-11c1.951-1.952 5.119-1.952 7.07 0l11 11c1.953 1.953 1.953 5.119 0 7.071l-11 11c-.975.976-2.255 1.464-3.535 1.464zm-3.928-16 3.929 3.929 3.929-3.929-3.929-3.929z" fill="#78efff" data-original="#6583fe" style="" class=""></path><path d="m110.849 474.081c-1.279 0-2.56-.488-3.535-1.464l-11-11c-1.953-1.953-1.953-5.119 0-7.071l11-11c1.951-1.952 5.119-1.952 7.07 0l11 11c1.953 1.953 1.953 5.119 0 7.071l-11 11c-.976.975-2.256 1.464-3.535 1.464zm-3.929-16 3.929 3.929 3.929-3.929-3.929-3.929z" fill="#78efff" data-original="#6583fe" style="" class=""></path></g></g><path d="m196.301 99.874-34.601-34.601c-4.674-4.674-12.665-1.364-12.665 5.246v10.051h-42.643c-4.097 0-7.419 3.321-7.419 7.419v34.262c0 4.097 3.322 7.419 7.419 7.419h42.643v10.052c0 6.609 7.991 9.92 12.665 5.246l34.602-34.602c2.897-2.897 2.897-7.594-.001-10.492z" fill="#78efff" data-original="#6583fe" style="" class=""></path></g></g><g fill="#2626bc"><path d="m63.976 246.79h326.159c40.191 0 72.89-32.698 72.89-72.89s-32.698-72.89-72.89-72.89h-157.999c-2.762 0-5 2.239-5 5s2.238 5 5 5h157.999c34.678 0 62.89 28.212 62.89 62.89s-28.212 62.89-62.89 62.89h-326.159c-2.757 0-5-2.243-5-5v-57.89c0-24.137 13.601-45.814 34.997-56.38v4.731c0 6.848 5.571 12.419 12.419 12.419h37.644v5.052c0 5.041 3.01 9.544 7.667 11.474 1.545.64 3.163.951 4.765.951 3.226 0 6.387-1.262 8.768-3.643l34.604-34.602c4.841-4.842 4.841-12.721 0-17.562h-.001l-34.602-34.602c-3.564-3.564-8.876-4.622-13.533-2.692-4.657 1.929-7.667 6.433-7.667 11.474v5.052h-37.644c-6.848 0-12.419 5.571-12.419 12.419v18.554c-27.34 11.331-44.997 37.749-44.997 67.357v57.89c-.001 8.269 6.727 14.998 14.999 14.998zm39.997-158.801c0-1.334 1.085-2.419 2.419-2.419h42.644c2.762 0 5-2.239 5-5v-10.051c0-1.459 1.044-2.049 1.493-2.235.45-.186 1.605-.506 2.636.524l34.603 34.602c.942.943.942 2.478 0 3.42l-34.604 34.602c-1.029 1.029-2.185.71-2.635.524-.449-.186-1.493-.776-1.493-2.235v-10.051c0-2.761-2.238-5-5-5h-42.644c-1.334 0-2.419-1.085-2.419-2.419z" fill="#26c5da" data-original="#2626bc" style=""></path><path d="m121.865 407.577h326.159c8.271 0 15-6.729 15-15v-24.229c0-2.761-2.238-5-5-5s-5 2.239-5 5v24.229c0 2.757-2.243 5-5 5h-326.159c-34.678 0-62.89-28.212-62.89-62.89 0-34.677 28.212-62.889 62.89-62.889h268.27c34.678 0 62.89 28.212 62.89 62.889 0 2.761 2.238 5 5 5s5-2.239 5-5c0-40.191-32.698-72.889-72.89-72.889h-268.27c-40.191 0-72.89 32.698-72.89 72.89s32.699 72.889 72.89 72.889z" fill="#26c5da" data-original="#2626bc" style=""></path></g></g></g></svg>