<svg xmlns="http://www.w3.org/2000/svg" xmlns:xlink="http://www.w3.org/1999/xlink" xmlns:svgjs="http://svgjs.com/svgjs" width="512" height="512" x="0" y="0" viewBox="0 0 512 512" style="enable-background:new 0 0 512 512" xml:space="preserve" class=""><g><linearGradient xmlns="http://www.w3.org/2000/svg" id="SVGID_1_" gradientUnits="userSpaceOnUse" x1="466.383" x2="-37.617" y1="490.572" y2="-61.429"><stop stop-opacity="1" stop-color="#c0f8ff" offset="0"></stop><stop stop-opacity="1" stop-color="#26c5da" offset="1"></stop></linearGradient><g xmlns="http://www.w3.org/2000/svg"><g fill="#00c" opacity=".1"><path d="m76.956 151.478h-16.11c-2.761 0-5 2.238-5 5v242.366c0 2.762 2.239 5 5 5h16.11c2.761 0 5-2.238 5-5v-242.366c0-2.761-2.239-5-5-5z" fill="#26c5da" data-original="#0000cc" style="" class=""></path><path d="m257.031 344.504h16.109c2.761 0 5-2.238 5-5v-183.026c0-2.762-2.239-5-5-5h-16.109c-2.761 0-5 2.238-5 5v183.026c0 2.762 2.239 5 5 5z" fill="#26c5da" data-original="#0000cc" style="" class=""></path><path d="m456.154 398.844v-242.366c0-2.762-2.239-5-5-5h-16.109c-2.761 0-5 2.238-5 5v242.366c0 2.762 2.239 5 5 5h16.109c2.761 0 5-2.238 5-5z" fill="#26c5da" data-original="#0000cc" style="" class=""></path><path d="m121.609 344.504h12.049c2.761 0 5-2.238 5-5v-183.026c0-2.762-2.239-5-5-5h-12.049c-2.761 0-5 2.238-5 5v183.026c0 2.762 2.239 5 5 5z" fill="#26c5da" data-original="#0000cc" style="" class=""></path><path d="m176.854 344.504c2.761 0 5-2.238 5-5v-183.026c0-2.762-2.239-5-5-5h-9.049c-2.761 0-5 2.238-5 5v183.026c0 2.762 2.239 5 5 5z" fill="#26c5da" data-original="#0000cc" style="" class=""></path><path d="m214.048 344.504c2.761 0 5-2.238 5-5v-183.026c0-2.762-2.239-5-5-5h-9.049c-2.761 0-5 2.238-5 5v183.026c0 2.762 2.239 5 5 5z" fill="#26c5da" data-original="#0000cc" style="" class=""></path><path d="m310.557 344.504h9.049c2.761 0 5-2.238 5-5v-183.026c0-2.762-2.239-5-5-5h-9.049c-2.761 0-5 2.238-5 5v183.026c0 2.762 2.238 5 5 5z" fill="#26c5da" data-original="#0000cc" style="" class=""></path><path d="m364.703 151.478h-9.049c-2.761 0-5 2.238-5 5v183.026c0 2.762 2.239 5 5 5h9.049c2.761 0 5-2.238 5-5v-183.026c0-2.761-2.238-5-5-5z" fill="#26c5da" data-original="#0000cc" style="" class=""></path><path d="m401.898 151.478h-9.049c-2.761 0-5 2.238-5 5v183.026c0 2.762 2.239 5 5 5h9.049c2.761 0 5-2.238 5-5v-183.026c0-2.761-2.239-5-5-5z" fill="#26c5da" data-original="#0000cc" style="" class=""></path><path d="m71.813 455.503h-10v-10c0-2.762-2.239-5-5-5h-11c-2.761 0-5 2.238-5 5v16c0 8.284 6.716 15 15 15h16c2.761 0 5-2.239 5-5v-11c0-2.762-2.238-5-5-5z" fill="#26c5da" data-original="#0000cc" style="" class=""></path><path d="m466.187 440.503h-11c-2.761 0-5 2.238-5 5v10h-10c-2.761 0-5 2.238-5 5v11c0 2.761 2.239 5 5 5h16c8.284 0 15-6.716 15-15v-16c0-2.762-2.239-5-5-5z" fill="#26c5da" data-original="#0000cc" style="" class=""></path><path d="m456.187 78.82h-16c-2.761 0-5 2.239-5 5v11c0 2.761 2.239 5 5 5h10v10c0 2.761 2.239 5 5 5h11c2.762 0 5-2.239 5-5v-16c0-8.285-6.716-15-15-15z" fill="#26c5da" data-original="#0000cc" style="" class=""></path><path d="m45.813 114.82h11c2.761 0 5-2.239 5-5v-10h10c2.761 0 5-2.239 5-5v-11c0-2.761-2.239-5-5-5h-16c-8.284 0-15 6.715-15 15v16c0 2.761 2.239 5 5 5z" fill="#26c5da" data-original="#0000cc" style="" class=""></path><path d="m150.376 365.782h-5.332c-6.508 0-11.802 5.295-11.802 11.803v16.457c0 6.508 5.294 11.803 11.802 11.803h5.332c6.508 0 11.803-5.295 11.803-11.803v-16.457c0-6.508-5.295-11.803-11.803-11.803zm1.803 28.26c0 .994-.809 1.803-1.803 1.803h-5.332c-.994 0-1.802-.809-1.802-1.803v-16.457c0-.994.809-1.803 1.802-1.803h5.332c.994 0 1.803.809 1.803 1.803z" fill="#26c5da" data-original="#0000cc" style="" class=""></path><path d="m121.672 365.782h-5.444c-2.761 0-5 2.238-5 5s2.239 5 5 5h.444v25.062c0 2.762 2.239 5 5 5s5-2.238 5-5v-30.062c0-2.761-2.238-5-5-5z" fill="#26c5da" data-original="#0000cc" style="" class=""></path><path d="m388.969 365.782h-5.332c-6.508 0-11.802 5.295-11.802 11.803v16.457c0 6.508 5.295 11.803 11.802 11.803h5.332c6.508 0 11.803-5.295 11.803-11.803v-16.457c0-6.508-5.295-11.803-11.803-11.803zm1.803 28.26c0 .994-.809 1.803-1.803 1.803h-5.332c-.994 0-1.802-.809-1.802-1.803v-16.457c0-.994.809-1.803 1.802-1.803h5.332c.994 0 1.803.809 1.803 1.803z" fill="#26c5da" data-original="#0000cc" style="" class=""></path><path d="m184.849 365.782h-5.331c-6.508 0-11.802 5.295-11.802 11.803v16.457c0 6.508 5.294 11.803 11.802 11.803h5.331c6.508 0 11.803-5.295 11.803-11.803v-16.457c-.001-6.508-5.296-11.803-11.803-11.803zm1.802 28.26c0 .994-.809 1.803-1.803 1.803h-5.331c-.994 0-1.802-.809-1.802-1.803v-16.457c0-.994.809-1.803 1.802-1.803h5.331c.994 0 1.803.809 1.803 1.803z" fill="#26c5da" data-original="#0000cc" style="" class=""></path><path d="m219.321 365.782h-5.332c-6.508 0-11.802 5.295-11.802 11.803v16.457c0 6.508 5.294 11.803 11.802 11.803h5.332c6.508 0 11.803-5.295 11.803-11.803v-16.457c0-6.508-5.295-11.803-11.803-11.803zm1.803 28.26c0 .994-.809 1.803-1.803 1.803h-5.332c-.994 0-1.802-.809-1.802-1.803v-16.457c0-.994.809-1.803 1.802-1.803h5.332c.994 0 1.803.809 1.803 1.803z" fill="#26c5da" data-original="#0000cc" style="" class=""></path><path d="m295.537 395.624h-5.184c3.195-3.311 6.24-7.033 7.594-10.308 1.886-4.564 1.446-9.632-1.177-13.555-2.448-3.66-6.42-5.759-10.899-5.759-7.412 0-13.442 6.03-13.442 13.441 0 2.762 2.239 5 5 5s5-2.238 5-5c0-1.897 1.544-3.441 3.442-3.441 1.131 0 2.001.443 2.586 1.318.753 1.124.847 2.725.248 4.176-1.561 3.776-9.364 11.178-14.406 15.228-1.654 1.329-2.29 3.558-1.586 5.559s2.594 3.341 4.716 3.341h18.108c2.761 0 5-2.238 5-5s-2.239-5-5-5z" fill="#26c5da" data-original="#0000cc" style="" class=""></path><path d="m253.357 365.782h-9.394c-2.761 0-5 2.238-5 5s2.239 5 5 5h9.394c1.387 0 2.516 1.129 2.516 2.516s-1.128 2.516-2.516 2.516h-9.394c-2.761 0-5 2.238-5 5s2.239 5 5 5h9.394c1.387 0 2.516 1.129 2.516 2.516s-1.128 2.515-2.516 2.515h-9.394c-2.761 0-5 2.238-5 5s2.239 5 5 5h9.394c6.901 0 12.516-5.614 12.516-12.515 0-2.822-.95-5.42-2.531-7.516 1.581-2.096 2.531-4.694 2.531-7.516 0-6.901-5.614-12.516-12.516-12.516z" fill="#26c5da" data-original="#0000cc" style="" class=""></path><path d="m326.675 366.091c-2.761 0-5 2.238-5 5v7.935h-5.623v-7.935c0-2.762-2.239-5-5-5s-5 2.238-5 5v12.935c0 2.762 2.239 5 5 5h10.623v11.511c0 2.762 2.239 5 5 5s5-2.238 5-5v-29.445c0-2.763-2.239-5.001-5-5.001z" fill="#26c5da" data-original="#0000cc" style="" class=""></path><path d="m360.092 366.091c-2.761 0-5 2.238-5 5v7.935h-5.623v-7.935c0-2.762-2.239-5-5-5s-5 2.238-5 5v12.935c0 2.762 2.239 5 5 5h10.623v11.511c0 2.762 2.239 5 5 5s5-2.238 5-5v-29.445c0-2.763-2.238-5.001-5-5.001z" fill="#26c5da" data-original="#0000cc" style="" class=""></path></g><g><path d="m512 190.296c0-77.209-114.615-139.799-256-139.799s-256 62.591-256 139.799c0 12.48 2.999 24.577 8.62 36.089 10.007 20.491 12.502 43.828 7.537 66.086-2.036 9.127-3.179 18.59-3.333 28.294-1.235 77.812 61.961 142.061 139.782 142.06 58.443 0 108.503-35.865 129.385-86.785 11.468-27.964 35.565-48.919 65.155-55.077 96.38-20.057 164.854-70.991 164.854-130.667z" fill="url(#SVGID_1_)" data-original="url(#SVGID_1_)" style=""></path><g><g fill="#fff"><path d="m55.846 135.478v242.366c0 2.761 2.239 5 5 5h16.11c2.761 0 5-2.239 5-5v-242.366c0-2.762-2.239-5-5-5h-16.11c-2.761 0-5 2.239-5 5z" fill="#ffffff" data-original="#ffffff" style=""></path><path d="m252.031 135.478v183.026c0 2.762 2.239 5 5 5h16.109c2.761 0 5-2.238 5-5v-183.026c0-2.762-2.239-5-5-5h-16.109c-2.761 0-5 2.239-5 5z" fill="#ffffff" data-original="#ffffff" style=""></path><path d="m430.044 135.478v242.366c0 2.761 2.239 5 5 5h16.109c2.761 0 5-2.239 5-5v-242.366c0-2.762-2.239-5-5-5h-16.109c-2.761 0-5 2.239-5 5z" fill="#ffffff" data-original="#ffffff" style=""></path><path d="m116.609 135.478v183.026c0 2.762 2.239 5 5 5h12.049c2.761 0 5-2.238 5-5v-183.026c0-2.762-2.239-5-5-5h-12.049c-2.761 0-5 2.239-5 5z" fill="#ffffff" data-original="#ffffff" style=""></path><path d="m162.804 135.478v183.026c0 2.762 2.239 5 5 5h9.049c2.761 0 5-2.238 5-5v-183.026c0-2.762-2.239-5-5-5h-9.049c-2.761 0-5 2.239-5 5z" fill="#ffffff" data-original="#ffffff" style=""></path><path d="m199.999 135.478v183.026c0 2.762 2.239 5 5 5h9.049c2.761 0 5-2.238 5-5v-183.026c0-2.762-2.239-5-5-5h-9.049c-2.761 0-5 2.239-5 5z" fill="#ffffff" data-original="#ffffff" style=""></path><path d="m305.557 135.478v183.026c0 2.762 2.239 5 5 5h9.049c2.761 0 5-2.238 5-5v-183.026c0-2.762-2.239-5-5-5h-9.049c-2.762 0-5 2.239-5 5z" fill="#ffffff" data-original="#ffffff" style=""></path><path d="m350.654 135.478v183.026c0 2.762 2.239 5 5 5h9.049c2.761 0 5-2.238 5-5v-183.026c0-2.762-2.239-5-5-5h-9.049c-2.761 0-5 2.239-5 5z" fill="#ffffff" data-original="#ffffff" style=""></path><path d="m387.849 135.478v183.026c0 2.762 2.239 5 5 5h9.049c2.762 0 5-2.238 5-5v-183.026c0-2.762-2.238-5-5-5h-9.049c-2.762 0-5 2.239-5 5z" fill="#ffffff" data-original="#ffffff" style=""></path></g><g><g><g><path d="m71.813 455.503h-16c-8.284 0-15-6.716-15-15v-16c0-2.761 2.238-5 5-5h11c2.761 0 5 2.239 5 5v10h10c2.761 0 5 2.239 5 5v11c0 2.761-2.238 5-5 5z" fill="#78efff" data-original="#6583fe" style="" class=""></path></g><g><path d="m440.187 455.503h16c8.284 0 15-6.716 15-15v-16c0-2.761-2.238-5-5-5h-11c-2.761 0-5 2.239-5 5v10h-10c-2.761 0-5 2.239-5 5v11c0 2.761 2.238 5 5 5z" fill="#78efff" data-original="#6583fe" style="" class=""></path></g></g><g><g><path d="m440.187 57.82h16c8.284 0 15 6.716 15 15v16c0 2.761-2.238 5-5 5h-11c-2.761 0-5-2.239-5-5v-10h-10c-2.761 0-5-2.239-5-5v-11c0-2.762 2.238-5 5-5z" fill="#78efff" data-original="#6583fe" style="" class=""></path></g><g><path d="m71.813 57.82h-16c-8.284 0-15 6.716-15 15v16c0 2.761 2.238 5 5 5h11c2.761 0 5-2.239 5-5v-10h10c2.761 0 5-2.239 5-5v-11c0-2.762-2.238-5-5-5z" fill="#78efff" data-original="#6583fe" style="" class=""></path></g></g></g><g fill="#00c"><path d="m76.956 125.479h-16.109c-5.514 0-10 4.486-10 10v242.365c0 5.514 4.486 10 10 10h16.109c5.514 0 10-4.486 10-10v-209.365c0-2.762-2.239-5-5-5s-5 2.238-5 5v209.365h-16.109v-242.365h16.109c0 2.762 2.239 5 5 5s5-2.238 5-5v-1.001c0-.831-.203-1.614-.561-2.303-1.367-3.896-5.083-6.696-9.439-6.696z" fill="#26c5da" data-original="#0000cc" style="" class=""></path><path d="m257.031 328.504h16.109c5.514 0 10-4.486 10-10v-183.025c0-5.514-4.486-10-10-10h-16.109c-5.514 0-10 4.486-10 10v183.025c0 5.514 4.486 10 10 10zm0-193.025h16.109v183.025h-16.109z" fill="#26c5da" data-original="#0000cc" style="" class=""></path><path d="m451.153 387.844c5.514 0 10-4.486 10-10v-242.365c0-5.514-4.486-10-10-10h-16.109c-5.514 0-10 4.486-10 10v208.365c0 2.762 2.239 5 5 5s5-2.238 5-5v-208.365h16.109v242.365l-16.109.007v-.006c0-2.762-2.239-5.001-5-5.001s-5 2.238-5 5c0 5.514 4.486 10 10 10z" fill="#26c5da" data-original="#0000cc" style="" class=""></path><path d="m121.609 328.504h12.049c5.514 0 10-4.486 10-10v-183.025c0-5.514-4.486-10-10-10h-12.049c-5.514 0-10 4.486-10 10v183.025c0 5.514 4.486 10 10 10zm0-193.025h12.049v183.025h-12.049z" fill="#26c5da" data-original="#0000cc" style="" class=""></path><path d="m167.804 328.504h9.049c5.514 0 10-4.486 10-10v-183.025c0-5.514-4.486-10-10-10h-9.049c-5.514 0-10 4.486-10 10v183.025c0 5.514 4.486 10 10 10zm0-193.025h9.049v183.025h-9.049z" fill="#26c5da" data-original="#0000cc" style="" class=""></path><path d="m214.048 328.504c5.514 0 10-4.486 10-10v-183.025c0-5.514-4.486-10-10-10h-9.049c-5.514 0-10 4.486-10 10v183.025c0 5.514 4.486 10 10 10zm-9.049-193.025h9.049v183.025h-9.049z" fill="#26c5da" data-original="#0000cc" style="" class=""></path><path d="m319.606 328.504c5.514 0 10-4.486 10-10v-183.025c0-5.514-4.486-10-10-10h-9.049c-5.514 0-10 4.486-10 10v183.025c0 5.514 4.486 10 10 10zm-9.049-193.025h9.049v183.025h-9.049z" fill="#26c5da" data-original="#0000cc" style="" class=""></path><path d="m374.703 135.479c0-5.514-4.486-10-10-10h-9.049c-5.514 0-10 4.486-10 10v183.025c0 5.514 4.486 10 10 10h9.049c5.514 0 10-4.486 10-10zm-10 183.025h-9.049v-183.025h9.049z" fill="#26c5da" data-original="#0000cc" style="" class=""></path><path d="m401.898 125.479h-9.049c-5.514 0-10 4.486-10 10v183.025c0 5.514 4.486 10 10 10h9.049c5.514 0 10-4.486 10-10v-183.025c0-5.514-4.486-10-10-10zm0 193.025h-9.049v-183.025h9.049z" fill="#26c5da" data-original="#0000cc" style="" class=""></path><path d="m71.813 429.503h-5v-5c0-5.514-4.486-10-10-10h-11c-5.514 0-10 4.486-10 10v16c0 11.028 8.972 20 20 20h16c5.514 0 10-4.486 10-10v-11c0-5.514-4.485-10-10-10zm-16 21c-5.514 0-10-4.486-10-10v-16h11v10c0 2.762 2.239 5 5 5h10l.006 11z" fill="#26c5da" data-original="#0000cc" style="" class=""></path><path d="m466.186 414.503h-11c-5.514 0-10 4.486-10 10v5h-5c-5.514 0-10 4.486-10 10v11c0 5.514 4.486 10 10 10h16c11.028 0 20-8.972 20-20v-16c0-5.514-4.485-10-10-10zm0 26c0 5.514-4.486 10-10 10h-16v-11h10c2.761 0 5-2.238 5-5v-10h11z" fill="#26c5da" data-original="#0000cc" style="" class=""></path><path d="m456.186 52.819h-16c-5.514 0-10 4.486-10 10v11c0 5.514 4.486 10 10 10h5v5c0 5.514 4.486 10 10 10h11c5.514 0 10-4.486 10-10v-16c0-11.028-8.972-20-20-20zm10 36h-11v-10c0-2.762-2.239-5-5-5h-10l-.006-11h.006 16c5.514 0 10 4.486 10 10z" fill="#26c5da" data-original="#0000cc" style="" class=""></path><path d="m45.813 98.819h11c5.514 0 10-4.486 10-10v-5h5c5.514 0 10-4.486 10-10v-11c0-5.514-4.486-10-10-10h-16c-11.028 0-20 8.972-20 20v16c0 5.514 4.486 10 10 10zm0-26c0-5.514 4.486-10 10-10h16v11h-10c-2.761 0-5 2.238-5 5v10h-11z" fill="#26c5da" data-original="#0000cc" style="" class=""></path><path d="m150.376 344.782h-5.332c-6.508 0-11.802 5.295-11.802 11.803v16.457c0 6.508 5.294 11.803 11.802 11.803h5.332c6.508 0 11.803-5.295 11.803-11.803v-16.457c0-6.508-5.295-11.803-11.803-11.803zm1.803 28.26c0 .994-.809 1.803-1.803 1.803h-5.332c-.994 0-1.802-.809-1.802-1.803v-16.457c0-.994.809-1.803 1.802-1.803h5.332c.994 0 1.803.809 1.803 1.803z" fill="#26c5da" data-original="#0000cc" style="" class=""></path><path d="m121.672 344.782h-5.444c-2.761 0-5 2.238-5 5s2.239 5 5 5h.444v25.062c0 2.762 2.239 5 5 5s5-2.238 5-5v-30.062c0-2.761-2.238-5-5-5z" fill="#26c5da" data-original="#0000cc" style="" class=""></path><path d="m388.969 344.782h-5.332c-6.508 0-11.802 5.295-11.802 11.803v16.457c0 6.508 5.295 11.803 11.802 11.803h5.332c6.508 0 11.803-5.295 11.803-11.803v-16.457c0-6.508-5.295-11.803-11.803-11.803zm1.803 28.26c0 .994-.809 1.803-1.803 1.803h-5.332c-.994 0-1.802-.809-1.802-1.803v-16.457c0-.994.809-1.803 1.802-1.803h5.332c.994 0 1.803.809 1.803 1.803z" fill="#26c5da" data-original="#0000cc" style="" class=""></path><path d="m184.849 344.782h-5.331c-6.508 0-11.802 5.295-11.802 11.803v16.457c0 6.508 5.294 11.803 11.802 11.803h5.331c6.508 0 11.803-5.295 11.803-11.803v-16.457c-.001-6.508-5.296-11.803-11.803-11.803zm1.802 28.26c0 .994-.809 1.803-1.803 1.803h-5.331c-.994 0-1.802-.809-1.802-1.803v-16.457c0-.994.809-1.803 1.802-1.803h5.331c.994 0 1.803.809 1.803 1.803z" fill="#26c5da" data-original="#0000cc" style="" class=""></path><path d="m219.321 344.782h-5.332c-6.508 0-11.802 5.295-11.802 11.803v16.457c0 6.508 5.294 11.803 11.802 11.803h5.332c6.508 0 11.803-5.295 11.803-11.803v-16.457c0-6.508-5.295-11.803-11.803-11.803zm1.803 28.26c0 .994-.809 1.803-1.803 1.803h-5.332c-.994 0-1.802-.809-1.802-1.803v-16.457c0-.994.809-1.803 1.802-1.803h5.332c.994 0 1.803.809 1.803 1.803z" fill="#26c5da" data-original="#0000cc" style="" class=""></path><path d="m295.537 374.624h-5.184c3.195-3.31 6.24-7.033 7.594-10.308 1.886-4.564 1.446-9.632-1.177-13.555-2.448-3.66-6.42-5.759-10.899-5.759-7.412 0-13.442 6.03-13.442 13.441 0 2.762 2.239 5 5 5s5-2.238 5-5c0-1.897 1.544-3.441 3.442-3.441 1.131 0 2.001.443 2.586 1.318.753 1.124.847 2.725.248 4.176-1.561 3.776-9.364 11.178-14.406 15.228-1.654 1.329-2.29 3.558-1.586 5.559s2.594 3.341 4.716 3.341h18.108c2.761 0 5-2.238 5-5s-2.239-5-5-5z" fill="#26c5da" data-original="#0000cc" style="" class=""></path><path d="m253.357 344.782h-9.394c-2.761 0-5 2.238-5 5s2.239 5 5 5h9.394c1.387 0 2.516 1.129 2.516 2.516s-1.128 2.516-2.516 2.516h-9.394c-2.761 0-5 2.238-5 5s2.239 5 5 5h9.394c1.387 0 2.516 1.129 2.516 2.516s-1.128 2.516-2.516 2.516h-9.394c-2.761 0-5 2.238-5 5s2.239 5 5 5h9.394c6.901 0 12.516-5.614 12.516-12.516 0-2.822-.95-5.42-2.531-7.516 1.581-2.096 2.531-4.694 2.531-7.516 0-6.901-5.614-12.516-12.516-12.516z" fill="#26c5da" data-original="#0000cc" style="" class=""></path><path d="m326.675 345.091c-2.761 0-5 2.238-5 5v7.935h-5.623v-7.935c0-2.762-2.239-5-5-5s-5 2.238-5 5v12.935c0 2.762 2.239 5 5 5h10.623v11.511c0 2.762 2.239 5 5 5s5-2.238 5-5v-29.445c0-2.763-2.239-5.001-5-5.001z" fill="#26c5da" data-original="#0000cc" style="" class=""></path><path d="m360.092 345.091c-2.761 0-5 2.238-5 5v7.935h-5.623v-7.935c0-2.762-2.239-5-5-5s-5 2.238-5 5v12.935c0 2.762 2.239 5 5 5h10.623v11.511c0 2.762 2.239 5 5 5s5-2.238 5-5v-29.445c0-2.763-2.238-5.001-5-5.001z" fill="#26c5da" data-original="#0000cc" style="" class=""></path></g></g><path d="m281.483 432.503c-1.28 0-2.559-.488-3.536-1.465-1.953-1.952-1.953-5.118 0-7.07l10-10c1.953-1.953 5.118-1.953 7.071 0 1.953 1.952 1.953 5.118 0 7.07l-10 10c-.976.977-2.255 1.465-3.535 1.465z" fill="#78efff" data-original="#6583fe" style="" class=""></path><path d="m228 60.497c-1.28 0-2.559-.488-3.536-1.465-1.953-1.952-1.953-5.118 0-7.07l10-10c1.953-1.953 5.118-1.953 7.071 0 1.953 1.952 1.953 5.118 0 7.07l-10 10c-.976.977-2.255 1.465-3.535 1.465z" fill="#78efff" data-original="#6583fe" style="" class=""></path><g><path d="m377.44 55.497c-1.28 0-2.559-.488-3.536-1.465l-6.464-6.464-6.464 6.464c-1.953 1.953-5.118 1.953-7.071 0-1.953-1.952-1.953-5.118 0-7.07l10-10c1.953-1.953 5.118-1.953 7.071 0l10 10c1.953 1.952 1.953 5.118 0 7.07-.976.977-2.256 1.465-3.536 1.465z" fill="#78efff" data-original="#6583fe" style="" class=""></path></g><g><path d="m202.183 432.503c-1.28 0-2.559-.488-3.536-1.465l-6.464-6.464-6.464 6.464c-1.953 1.953-5.118 1.953-7.071 0-1.953-1.952-1.953-5.118 0-7.07l10-10c1.953-1.953 5.118-1.953 7.071 0l10 10c1.953 1.952 1.953 5.118 0 7.07-.977.977-2.256 1.465-3.536 1.465z" fill="#78efff" data-original="#6583fe" style="" class=""></path></g><g><path d="m181.854 90.819c-1.28 0-2.559-.488-3.536-1.465l-6.464-6.464-6.464 6.464c-1.953 1.953-5.118 1.953-7.071 0-1.953-1.952-1.953-5.118 0-7.07l10-10c1.953-1.953 5.118-1.953 7.071 0l10 10c1.953 1.952 1.953 5.118 0 7.07-.977.977-2.257 1.465-3.536 1.465z" fill="#78efff" data-original="#6583fe" style="" class=""></path></g></g></g></g></svg>