<svg xmlns="http://www.w3.org/2000/svg" xmlns:xlink="http://www.w3.org/1999/xlink" xmlns:svgjs="http://svgjs.com/svgjs" width="512" height="512" x="0" y="0" viewBox="0 0 512 512" style="enable-background:new 0 0 512 512" xml:space="preserve" class=""><g><linearGradient xmlns="http://www.w3.org/2000/svg" id="SVGID_1_" gradientTransform="matrix(1 0 0 -1 0 514)" gradientUnits="userSpaceOnUse" x1="12.034" x2="499.966" y1="258" y2="258"><stop stop-opacity="1" stop-color="#c0f8ff" offset="0"></stop><stop stop-opacity="1" stop-color="#26c5da" offset="1"></stop></linearGradient><g xmlns="http://www.w3.org/2000/svg"><path d="m286.593 4.867c-94.351 27.746-75.427 93.585-85.98 166.539-13.171 91.052-70.095 44.365-135.496 93.538-113.054 85.001-30.931 272.636 109.468 244.14 74.552-15.131 89.786-70.095 120.193-128.824 39.333-75.973 104.558-55.26 163.066-104.857 118.655-100.582-37.403-309.897-171.251-270.536z" fill="url(#SVGID_1_)" data-original="url(#SVGID_1_)" style=""></path><g opacity=".1"><path d="m389.165 359.044c-3.456 0-6.835.316-10.127.889 12.059-20.872 18.962-45.096 18.962-70.933 0-25.838-6.903-50.062-18.962-70.933 3.291.573 6.671.889 10.127.889 32.397 0 58.659-26.263 58.659-58.659 0-32.397-26.263-58.659-58.659-58.659-32.397 0-58.659 26.263-58.659 58.659 0 2.773.206 5.497.579 8.167-21.784-13.598-47.514-21.464-75.085-21.464s-53.301 7.866-75.084 21.464c.372-2.671.579-5.394.579-8.167 0-32.397-26.263-58.659-58.659-58.659-32.397 0-58.659 26.263-58.659 58.659 0 32.397 26.263 58.659 58.659 58.659 3.455 0 6.835-.316 10.127-.889-12.06 20.871-18.963 45.095-18.963 70.933 0 25.837 6.903 50.061 18.962 70.933-3.292-.573-6.671-.889-10.127-.889-32.397 0-58.659 26.263-58.659 58.659 0 32.397 26.263 58.659 58.659 58.659 32.397 0 58.659-26.263 58.659-58.659 0-2.773-.206-5.497-.579-8.167 21.784 13.598 47.514 21.464 75.085 21.464s53.301-7.866 75.084-21.464c-.372 2.671-.579 5.394-.579 8.167 0 32.397 26.263 58.659 58.659 58.659 32.397 0 58.659-26.263 58.659-58.659.001-32.396-26.262-58.659-58.658-58.659z" fill="#26c5da" data-original="#2626bc" style="" class=""></path></g><g><circle cx="256" cy="265" fill="#ffffff" r="142" data-original="#ffffff" style="" class=""></circle></g><g><path d="m331.65 288.6v96.59c-21.9 13.81-47.84 21.81-75.65 21.81-6.84 0-13.57-.48-20.16-1.42v-33.31h-31.88c-4.73 0-8.32-4.25-7.56-8.93l.61-3.73 1.65-10.01 1.27-7.74 1.64-10h-13.55c-4.23 0-7.67-3.44-7.67-7.66v-35.6c0-41.77 33.88-75.63 75.65-75.63s75.65 33.86 75.65 75.63z" fill="#78efff" data-original="#6583fe" style="" class=""></path></g><g><path d="m218.855 336.865c0 2.76-2.24 5-5 5h-13.93l1.65-10h12.28c2.76 0 5 2.24 5 5z" fill="#26c5da" data-original="#2626bc" style="" class=""></path></g><g><path d="m246.295 351.915c-.59.31-14.74 7.67-49.29 7.7l1.65-10.01c30.36-.24 42.8-6.44 42.92-6.51 2.43-1.3 5.46-.39 6.77 2.05 1.3 2.43.38 5.46-2.05 6.77z" fill="#26c5da" data-original="#2626bc" style="" class=""></path></g><g><path d="m238.553 301.194c-2.762 0-5-2.239-5-5v-2.685c0-2.761 2.238-5 5-5s5 2.239 5 5v2.685c0 2.762-2.238 5-5 5z" fill="#26c5da" data-original="#2626bc" style="" class=""></path></g><g><path d="m287.594 333.693c-6.78 0-13.561-2.581-18.723-7.743-1.953-1.953-1.953-5.119 0-7.071 1.951-1.952 5.119-1.952 7.07 0 6.426 6.425 16.879 6.425 23.305 0 6.425-6.425 6.425-16.879 0-23.304-6.426-6.425-16.879-6.425-23.305 0-1.951 1.952-5.119 1.952-7.07 0-1.953-1.953-1.953-5.119 0-7.071 10.322-10.323 27.123-10.323 37.445 0 10.324 10.324 10.324 27.122 0 37.446-5.16 5.162-11.942 7.743-18.722 7.743z" fill="#26c5da" data-original="#2626bc" style="" class=""></path></g><g><circle cx="122.835" cy="393.703" fill="#ffffff" r="58.659" data-original="#ffffff" style="" class=""></circle></g><g><path d="m150.361 395.453c0 3.176-2.574 5.75-5.75 5.75s-5.75-2.574-5.75-5.75 2.574-12.75 5.75-12.75c3.175 0 5.75 9.575 5.75 12.75z" fill="#78efff" data-original="#6583fe" style="" class=""></path></g><g><circle cx="389.165" cy="393.703" fill="#78efff" r="58.659" data-original="#6583fe" style="" class=""></circle></g><g><circle cx="122.835" cy="136.297" fill="#78efff" r="58.659" data-original="#6583fe" style="" class=""></circle></g><g><circle cx="389.165" cy="136.297" fill="#ffffff" r="58.659" data-original="#ffffff" style="" class=""></circle></g><g><path d="m186.474 394.523c21.292 11.444 45.153 17.477 69.526 17.477 24.368 0 48.232-6.033 69.522-17.474.35 27.923 18.419 52.017 45.201 60.113 2.641.797 5.434-.696 6.233-3.34.799-2.643-.696-5.434-3.339-6.232-22.439-6.783-38.111-27.904-38.111-51.363 0-29.588 24.072-53.659 53.66-53.659s53.659 24.071 53.659 53.659c0 23.601-15.796 44.757-38.413 51.448-2.648.784-4.16 3.565-3.376 6.214.644 2.175 2.634 3.582 4.793 3.582.469 0 .947-.066 1.42-.206 26.834-7.939 45.576-33.039 45.576-61.038 0-35.102-28.558-63.659-63.659-63.659-.449 0-.893.025-1.34.034 9.94-20.134 15.174-42.458 15.174-65.079s-5.234-44.945-15.175-65.078c.447.009.891.034 1.34.034 35.102 0 63.659-28.558 63.659-63.659 0-35.102-28.558-63.659-63.659-63.659-34.825 0-63.194 28.113-63.639 62.834-21.286-11.438-45.185-17.472-69.526-17.472-12.041 0-24.018 1.461-35.597 4.341-2.68.667-4.311 3.38-3.645 6.06.667 2.68 3.378 4.31 6.059 3.645 10.79-2.685 21.955-4.046 33.183-4.046 24.662 0 48.84 6.626 69.919 19.162.191.113.387.211.586.296 4.519 25.433 24.177 45.689 49.303 51.076 11.242 20.227 17.192 43.175 17.192 66.466s-5.95 46.238-17.192 66.465c-25.1 5.382-44.743 25.602-49.289 50.999-21.234 12.776-45.594 19.536-70.519 19.536-24.929 0-49.283-6.761-70.52-19.538-4.546-25.395-24.187-45.613-49.285-50.996-11.244-20.231-17.195-43.169-17.195-66.466 0-23.306 5.953-46.232 17.205-66.469 28.702-6.161 50.289-31.719 50.289-62.235 0-35.102-28.558-63.659-63.66-63.659s-63.659 28.558-63.659 63.659c0 35.102 28.558 63.659 63.659 63.659.447 0 .888-.025 1.333-.034-9.945 20.137-15.167 42.446-15.167 65.079 0 22.626 5.228 44.943 15.17 65.078-.446-.009-.887-.034-1.335-.034-35.102 0-63.659 28.558-63.659 63.659 0 35.102 28.558 63.659 63.659 63.659 34.827 0 63.196-28.115 63.639-62.839zm149.031-258.226c0-29.588 24.072-53.659 53.66-53.659s53.659 24.071 53.659 53.659-24.071 53.659-53.659 53.659-53.66-24.071-53.66-53.659zm-266.329 0c0-29.588 24.071-53.659 53.659-53.659s53.66 24.071 53.66 53.659-24.072 53.659-53.66 53.659-53.659-24.071-53.659-53.659zm0 257.406c0-29.588 24.071-53.659 53.659-53.659s53.66 24.071 53.66 53.659-24.072 53.659-53.66 53.659-53.659-24.071-53.659-53.659z" fill="#26c5da" data-original="#2626bc" style="" class=""></path></g><g><path d="m106.06 376.821c0-2.762-2.239-5-5-5s-5 2.238-5 5v2.725c0 2.762 2.239 5 5 5s5-2.238 5-5z" fill="#26c5da" data-original="#2626bc" style="" class=""></path></g><g><path d="m144.611 384.546c2.761 0 5-2.238 5-5v-2.725c0-2.762-2.239-5-5-5s-5 2.238-5 5v2.725c0 2.762 2.239 5 5 5z" fill="#26c5da" data-original="#2626bc" style="" class=""></path></g><g><path d="m362.389 376.821v2.725c0 2.762 2.239 5 5 5s5-2.238 5-5v-2.725c0-2.762-2.239-5-5-5s-5 2.239-5 5z" fill="#26c5da" data-original="#2626bc" style="" class=""></path></g><g><path d="m415.94 379.546v-2.725c0-2.762-2.239-5-5-5s-5 2.238-5 5v2.725c0 2.762 2.239 5 5 5 2.762 0 5-2.238 5-5z" fill="#26c5da" data-original="#2626bc" style="" class=""></path></g><g><path d="m101.06 114.415c-2.761 0-5 2.238-5 5v2.725c0 2.762 2.239 5 5 5s5-2.238 5-5v-2.725c0-2.762-2.239-5-5-5z" fill="#26c5da" data-original="#2626bc" style="" class=""></path></g><g><path d="m144.611 114.415c-2.761 0-5 2.238-5 5v2.725c0 2.762 2.239 5 5 5s5-2.238 5-5v-2.725c0-2.762-2.239-5-5-5z" fill="#26c5da" data-original="#2626bc" style="" class=""></path></g><g><path d="m367.389 114.415c-2.761 0-5 2.238-5 5v2.725c0 2.762 2.239 5 5 5s5-2.238 5-5v-2.725c0-2.762-2.239-5-5-5z" fill="#26c5da" data-original="#2626bc" style="" class=""></path></g><g><path d="m410.94 127.14c2.761 0 5-2.238 5-5v-2.725c0-2.762-2.239-5-5-5s-5 2.238-5 5v2.725c0 2.761 2.239 5 5 5z" fill="#26c5da" data-original="#2626bc" style="" class=""></path></g><g><path d="m131.776 419.334c.988 1.221 2.432 1.854 3.889 1.854 1.105 0 2.218-.364 3.144-1.114 2.146-1.738 2.477-4.887.739-7.032-4.106-5.07-10.198-7.978-16.713-7.978s-12.606 2.908-16.712 7.978c-1.738 2.146-1.407 5.294.739 7.032s5.294 1.407 7.032-.739c2.198-2.715 5.457-4.271 8.941-4.271 3.484-.002 6.743 1.555 8.941 4.27z" fill="#26c5da" data-original="#2626bc" style="" class=""></path></g><g><path d="m369.66 136.269c-2.948 0-4.136 3.819-1.701 5.48 6.041 4.12 13.341 6.53 21.205 6.53s15.164-2.41 21.205-6.53c2.436-1.661 1.247-5.48-1.701-5.48z" fill="#26c5da" data-original="#2626bc" style="" class=""></path></g><g><path d="m389.165 172.26c-7.492 0-13.566-6.074-13.566-13.566v-22.426h27.132v22.426c0 7.492-6.074 13.566-13.566 13.566z" fill="#78efff" data-original="#6583fe" style="" class=""></path></g><g><path d="m92.45 138.923c-1.9 0-3.333 1.747-2.945 3.607 3.219 15.458 16.917 27.071 33.33 27.071s30.111-11.614 33.33-27.071c.387-1.86-1.045-3.607-2.945-3.607z" fill="#26c5da" data-original="#2626bc" style="" class=""></path></g><g><path d="m154.714 147.506c.6-1.6 1.086-3.256 1.444-4.958.393-1.866-1.035-3.625-2.943-3.625h-60.761c-1.907 0-3.335 1.758-2.943 3.625.358 1.703.844 3.358 1.444 4.958z" fill="#ffffff" data-original="#ffffff" style="" class=""></path></g><g><path d="m136.92 166.566c-4.29 1.95-9.06 3.04-14.08 3.04s-9.79-1.09-14.08-3.04c2.11-5.72 7.61-9.81 14.08-9.81 6.46 0 11.97 4.09 14.08 9.81z" fill="#ffffff" data-original="#ffffff" style="" class=""></path></g><g><path d="m408.363 422.351h-38.397c-7.911 0-14.324-6.413-14.324-14.324s6.413-14.324 14.324-14.324h38.397c7.911 0 14.324 6.413 14.324 14.324s-6.413 14.324-14.324 14.324z" fill="#ffffff" data-original="#ffffff" style="" class=""></path></g><g><path d="m422.69 408.03c0 .78-.06 1.55-.19 2.3h-66.68c-.12-.75-.18-1.52-.18-2.3 0-.75.06-1.48.16-2.2h66.72c.11.72.17 1.45.17 2.2z" fill="#26c5da" data-original="#2626bc" style="" class=""></path></g><g><circle cx="256" cy="201.176" fill="#ffffff" r="39.258" data-original="#ffffff" style="" class=""></circle></g><g><path d="m256 245.434c-24.404 0-44.258-19.854-44.258-44.258s19.854-44.258 44.258-44.258 44.258 19.854 44.258 44.258-19.854 44.258-44.258 44.258zm0-78.516c-18.89 0-34.258 15.368-34.258 34.258s15.368 34.258 34.258 34.258 34.258-15.368 34.258-34.258-15.368-34.258-34.258-34.258z" fill="#26c5da" data-original="#2626bc" style="" class=""></path></g><g><path d="m272.613 195.369c0-9.161-7.453-16.613-16.613-16.613-9.161 0-16.613 7.453-16.613 16.613 0 4.518 1.818 8.615 4.755 11.613-2.936 2.998-4.755 7.095-4.755 11.613 0 2.761 2.239 5 5 5s5-2.239 5-5c0-3.646 2.967-6.613 6.613-6.613 3.647 0 6.613 2.967 6.613 6.613 0 2.761 2.239 5 5 5s5-2.239 5-5c0-4.518-1.818-8.615-4.755-11.613 2.937-2.997 4.755-7.094 4.755-11.613zm-16.613-6.613c3.647 0 6.613 2.967 6.613 6.613s-2.967 6.613-6.613 6.613-6.613-2.967-6.613-6.613 2.967-6.613 6.613-6.613z" fill="#26c5da" data-original="#2626bc" style="" class=""></path></g><g><path d="m459.134 343.878c-1.326 0-2.598-.526-3.536-1.465l-11.31-11.311c-1.953-1.952-1.953-5.118 0-7.07l11.31-11.311c.938-.939 2.21-1.465 3.536-1.465s2.598.526 3.536 1.465l11.311 11.311c1.953 1.952 1.953 5.118 0 7.07l-11.311 11.311c-.938.939-2.21 1.465-3.536 1.465zm-4.239-16.311 4.239 4.239 4.239-4.239-4.239-4.239z" fill="#78efff" data-original="#6583fe" style="" class=""></path></g><g><path d="m229.59 102.838c-1.28 0-2.559-.488-3.535-1.464l-11.311-11.31c-.938-.938-1.465-2.21-1.465-3.536s.527-2.598 1.464-3.535l11.311-11.311c.938-.938 2.21-1.465 3.536-1.465s2.598.526 3.536 1.465l11.31 11.311c.938.938 1.464 2.209 1.464 3.535s-.527 2.598-1.464 3.535l-11.31 11.31c-.977.977-2.256 1.465-3.536 1.465zm-4.239-16.31 4.239 4.238 4.239-4.238-4.239-4.239z" fill="#78efff" data-original="#6583fe" style="" class=""></path></g><g><path d="m52.087 265.879c-2.761 0-5-2.238-5-5 0-3.309-2.691-6-6-6-2.761 0-5-2.238-5-5s2.239-5 5-5c3.309 0 6-2.691 6-6 0-2.762 2.239-5 5-5s5 2.238 5 5c0 3.309 2.691 6 6 6 2.761 0 5 2.238 5 5s-2.239 5-5 5c-3.309 0-6 2.691-6 6 0 2.762-2.238 5-5 5z" fill="#78efff" data-original="#6583fe" style="" class=""></path></g><g><path d="m187.86 70.102c-2.761 0-5-2.238-5-5 0-3.309-2.692-6-6-6-2.761 0-5-2.238-5-5s2.239-5 5-5c3.308 0 6-2.691 6-6 0-2.762 2.239-5 5-5s5 2.238 5 5c0 3.309 2.691 6 6 6 2.761 0 5 2.238 5 5s-2.239 5-5 5c-3.309 0-6 2.691-6 6 0 2.761-2.238 5-5 5z" fill="#78efff" data-original="#6583fe" style="" class=""></path></g><g><path d="m445.964 287.232c-2.761 0-5-2.238-5-5 0-3.309-2.691-6-6-6-2.761 0-5-2.238-5-5s2.239-5 5-5c3.309 0 6-2.692 6-6.001 0-2.762 2.239-5 5-5s5 2.238 5 5c0 3.309 2.691 6.001 6 6.001 2.761 0 5 2.238 5 5s-2.239 5-5 5c-3.309 0-6 2.691-6 6 0 2.762-2.238 5-5 5z" fill="#78efff" data-original="#6583fe" style="" class=""></path></g></g></g></svg>