<svg xmlns="http://www.w3.org/2000/svg" xmlns:xlink="http://www.w3.org/1999/xlink" xmlns:svgjs="http://svgjs.com/svgjs" width="512" height="512" x="0" y="0" viewBox="0 0 512 512" style="enable-background:new 0 0 512 512" xml:space="preserve" class=""><g><linearGradient xmlns="http://www.w3.org/2000/svg" id="SVGID_1_" gradientUnits="userSpaceOnUse" x1="45.274" x2="466.726" y1="256" y2="256"><stop stop-opacity="1" stop-color="#c0f8ff" offset="0"></stop><stop stop-opacity="1" stop-color="#26c5da" offset="1"></stop></linearGradient><g xmlns="http://www.w3.org/2000/svg"><g><g><path d="m97.146 38.232c-135.328 119.538 38.831 235.409 22.243 366.028-7.375 58.072 16.054 113.588 92.705 107.244 93.413-7.732 59.504-97.209 79.066-156.778 33.66-102.501 240.73-78.56 154.895-236.448-54.778-100.758-255.767-162.321-348.909-80.046z" fill="url(#SVGID_1_)" data-original="url(#SVGID_1_)" style=""></path></g><g><g><path d="m447.24 163.89v232.22c0 5.52-4.48 10-10 10h-362.48c-5.52 0-10-4.48-10-10v-232.22c0-5.52 4.48-10 10-10h362.48c5.52 0 10 4.48 10 10z" fill="#26c5da" opacity=".1" data-original="#2626bc" style="" class=""></path><path d="m447.24 139.89v232.22c0 5.52-4.48 10-10 10h-362.48c-5.52 0-10-4.48-10-10v-232.22c0-5.52 4.48-10 10-10h362.48c5.52 0 10 4.48 10 10z" fill="#ffffff" data-original="#ffffff" style="" class=""></path><g><path d="m413.79 269.68v112.43h-95.8v-28.77h-31.88c-4.73 0-8.33-4.25-7.57-8.92l.61-3.73 1.65-10.01 1.27-7.74 1.65-10h-13.55c-4.23 0-7.67-3.44-7.67-7.67v-35.59c0-41.77 33.87-75.64 75.64-75.64 41.78 0 75.65 33.87 75.65 75.64z" fill="#78efff" data-original="#6583fe" style="" class=""></path><g><path d="m301 317.94c0 2.76-2.24 5-5 5h-13.93l1.65-10h12.28c2.76 0 5 2.24 5 5z" fill="#26c5da" data-original="#2626bc" style="" class=""></path></g><g><path d="m328.44 332.99c-.59.31-14.74 7.67-49.29 7.7l1.65-10.01c30.36-.24 42.8-6.44 42.92-6.51 2.43-1.3 5.46-.39 6.77 2.05 1.3 2.43.38 5.46-2.05 6.77z" fill="#26c5da" data-original="#2626bc" style="" class=""></path></g><g><path d="m320.698 282.269c-2.762 0-5-2.239-5-5v-2.684c0-2.761 2.238-5 5-5s5 2.239 5 5v2.684c0 2.762-2.238 5-5 5z" fill="#26c5da" data-original="#2626bc" style="" class=""></path></g><g><path d="m369.739 314.769c-6.78 0-13.562-2.581-18.723-7.743-1.953-1.953-1.953-5.119 0-7.071 1.951-1.952 5.119-1.952 7.07 0 6.426 6.425 16.879 6.425 23.305 0 6.425-6.425 6.425-16.879 0-23.304-6.426-6.425-16.879-6.425-23.305 0-1.951 1.952-5.119 1.952-7.07 0-1.953-1.953-1.953-5.119 0-7.071 10.322-10.323 27.123-10.323 37.445 0 10.324 10.324 10.324 27.122 0 37.446-5.16 5.161-11.941 7.743-18.722 7.743z" fill="#26c5da" data-original="#2626bc" style="" class=""></path></g></g><path d="m283.436 113.609c-.922-14.354-12.85-25.712-27.436-25.712s-26.514 11.358-27.436 25.712h-23.564c-5.523 0-10 4.477-10 10v34c0 5.523 4.477 10 10 10h102c5.523 0 10-4.477 10-10v-34c0-5.523-4.477-10-10-10z" fill="#78efff" data-original="#6583fe" style="" class=""></path><g fill="#2626bc"><circle cx="225.5" cy="139.25" r="7.5" fill="#26c5da" data-original="#2626bc" style="" class=""></circle><circle cx="286.5" cy="139.25" r="7.5" fill="#26c5da" data-original="#2626bc" style="" class=""></circle></g><circle cx="256" cy="113.144" fill="#ffffff" r="14.663" data-original="#ffffff" style="" class=""></circle><path d="m220 275.323h-114c-5.523 0-10-4.477-10-10v-15.427c0-5.523 4.477-10 10-10h114c5.523 0 10 4.477 10 10v15.427c0 5.523-4.477 10-10 10z" fill="#78efff" data-original="#6583fe" style="" class=""></path><g><path d="m177.519 299.333h-76.519c-2.762 0-5-2.239-5-5s2.238-5 5-5h76.519c2.762 0 5 2.239 5 5s-2.238 5-5 5z" fill="#26c5da" data-original="#2626bc" style="" class=""></path></g><g><path d="m237.519 319.769h-136.519c-2.762 0-5-2.239-5-5s2.238-5 5-5h136.519c2.762 0 5 2.239 5 5s-2.238 5-5 5z" fill="#26c5da" data-original="#2626bc" style="" class=""></path></g><g><path d="m147.52 356h-46.52c-2.762 0-5-2.239-5-5s2.238-5 5-5h46.52c2.762 0 5 2.239 5 5s-2.239 5-5 5z" fill="#26c5da" data-original="#2626bc" style="" class=""></path></g><g><g><path d="m376.851 221.672h-5.332c-6.508 0-11.803-5.294-11.803-11.802v-16.457c0-6.508 5.295-11.803 11.803-11.803h5.332c6.508 0 11.802 5.295 11.802 11.803v16.457c-.001 6.507-5.295 11.802-11.802 11.802zm-5.332-30.062c-.994 0-1.803.809-1.803 1.803v16.457c0 .994.809 1.802 1.803 1.802h5.332c.993 0 1.802-.809 1.802-1.802v-16.457c0-.994-.809-1.803-1.802-1.803z" fill="#26c5da" data-original="#2626bc" style="" class=""></path></g><g><path d="m405.667 221.672c-2.762 0-5-2.239-5-5v-25.062h-.444c-2.762 0-5-2.239-5-5s2.238-5 5-5h5.444c2.762 0 5 2.239 5 5v30.062c0 2.761-2.238 5-5 5z" fill="#26c5da" data-original="#2626bc" style="" class=""></path></g></g><g><path d="m101 168.365c-2.762 0-5-2.239-5-5v-.115c0-2.761 2.238-5 5-5s5 2.239 5 5v.115c0 2.761-2.238 5-5 5z" fill="#26c5da" data-original="#2626bc" style="" class=""></path></g><g><path d="m101 186.667c-2.762 0-5-2.239-5-5v-.115c0-2.761 2.238-5 5-5s5 2.239 5 5v.115c0 2.762-2.238 5-5 5z" fill="#26c5da" data-original="#2626bc" style="" class=""></path></g><g><path d="m101 204.97c-2.762 0-5-2.239-5-5v-.115c0-2.761 2.238-5 5-5s5 2.239 5 5v.115c0 2.761-2.238 5-5 5z" fill="#26c5da" data-original="#2626bc" style="" class=""></path></g></g><g fill="#6583fe"><path d="m160.26 100.288c-2.762 0-5-2.239-5-5 0-3.309-2.691-6-6-6-2.762 0-5-2.239-5-5s2.238-5 5-5c3.309 0 6-2.691 6-6 0-2.761 2.238-5 5-5s5 2.239 5 5c0 3.309 2.691 6 6 6 2.762 0 5 2.239 5 5s-2.238 5-5 5c-3.309 0-6 2.691-6 6 0 2.761-2.239 5-5 5z" fill="#78efff" data-original="#6583fe" style="" class=""></path><path d="m205.5 74.415c-2.762 0-5-2.239-5-5 0-3.309-2.691-6-6-6-2.762 0-5-2.239-5-5s2.238-5 5-5c3.309 0 6-2.691 6-6 0-2.761 2.238-5 5-5s5 2.239 5 5c0 3.309 2.691 6 6 6 2.762 0 5 2.239 5 5s-2.238 5-5 5c-3.309 0-6 2.691-6 6 0 2.762-2.238 5-5 5z" fill="#78efff" data-original="#6583fe" style="" class=""></path><path d="m253 464.586c-2.762 0-5-2.239-5-5 0-3.309-2.691-6-6-6-2.762 0-5-2.239-5-5s2.238-5 5-5c3.309 0 6-2.691 6-6 0-2.761 2.238-5 5-5s5 2.239 5 5c0 3.309 2.691 6 6 6 2.762 0 5 2.239 5 5s-2.238 5-5 5c-3.309 0-6 2.691-6 6 0 2.762-2.238 5-5 5z" fill="#78efff" data-original="#6583fe" style="" class=""></path><path d="m306 447c-1.279 0-2.56-.488-3.535-1.464l-11-11c-1.953-1.953-1.953-5.119 0-7.071l11-11c1.951-1.952 5.119-1.952 7.07 0l11 11c1.953 1.953 1.953 5.119 0 7.071l-11 11c-.975.976-2.256 1.464-3.535 1.464zm-3.929-16 3.929 3.929 3.929-3.929-3.929-3.929z" fill="#78efff" data-original="#6583fe" style="" class=""></path><path d="m359.716 102.288c-1.279 0-2.56-.488-3.535-1.464l-11-11c-.939-.938-1.465-2.209-1.465-3.536s.526-2.598 1.465-3.536l11-11c1.951-1.952 5.119-1.952 7.07 0l11 11c.938.938 1.465 2.21 1.465 3.536s-.526 2.598-1.465 3.536l-11 10.999c-.976.976-2.256 1.465-3.535 1.465zm-3.929-16 3.929 3.929 3.929-3.929-3.929-3.929z" fill="#78efff" data-original="#6583fe" style="" class=""></path></g></g></g><path d="m307 161h-51.17c-2.762 0-5 2.239-5 5s2.238 5 5 5h51.17c8.271 0 15-6.729 15-15v-34c0-8.271-6.729-15-15-15h-19.219c-3.14-14.745-16.292-25.712-31.781-25.712s-28.641 10.967-31.781 25.712h-19.219c-8.271 0-15 6.729-15 15v2.893h-115.24c-8.271 0-15 6.729-15 15v232.215c0 8.271 6.728 15 15 15h362.48c8.271 0 15-6.729 15-15v-232.215c0-8.271-6.729-15-15-15h-86.58c-2.762 0-5 2.239-5 5s2.238 5 5 5h86.58c2.757 0 5 2.243 5 5v232.215c0 2.757-2.243 5-5 5h-362.48c-2.757 0-5-2.243-5-5v-232.215c0-2.757 2.243-5 5-5h115.24v21.107c0 8.271 6.729 15 15 15h17.17c2.762 0 5-2.239 5-5s-2.238-5-5-5h-17.17c-2.757 0-5-2.243-5-5v-34c0-2.757 2.243-5 5-5h23.565c2.637 0 4.82-2.048 4.989-4.68.758-11.794 10.617-21.032 22.446-21.032s21.689 9.238 22.446 21.032c.169 2.632 2.353 4.68 4.989 4.68h23.565c2.757 0 5 2.243 5 5v34c0 2.757-2.243 5-5 5z" fill="#26c5da" data-original="#2626bc" style="" class=""></path></g></g></svg>