<svg xmlns="http://www.w3.org/2000/svg" xmlns:xlink="http://www.w3.org/1999/xlink" xmlns:svgjs="http://svgjs.com/svgjs" width="512" height="512" x="0" y="0" viewBox="0 0 512 512" style="enable-background:new 0 0 512 512" xml:space="preserve" class=""><g><linearGradient xmlns="http://www.w3.org/2000/svg" id="SVGID_1_" gradientUnits="userSpaceOnUse" x1="12.034" x2="499.966" y1="256" y2="256"><stop stop-opacity="1" stop-color="#c0f8ff" offset="0"></stop><stop stop-opacity="1" stop-color="#26c5da" offset="1"></stop></linearGradient><g xmlns="http://www.w3.org/2000/svg"><g><g><path d="m286.593 4.867c-94.351 27.746-75.427 93.585-85.98 166.539-13.171 91.052-70.095 44.365-135.496 93.538-113.054 85.001-30.931 272.636 109.468 244.14 74.552-15.131 89.786-70.095 120.193-128.824 39.333-75.973 104.558-55.26 163.066-104.857 118.655-100.582-37.403-309.897-171.251-270.536z" fill="url(#SVGID_1_)" data-original="url(#SVGID_1_)" style=""></path></g><g><g fill="#2626bc"><path d="m227.483 423.739c-2.045-1.857-5.208-1.703-7.063.344l-54.698 60.303c-1.855 2.046-1.701 5.208.344 7.062 2.039 1.852 5.203 1.706 7.063-.344l54.698-60.303c1.855-2.046 1.702-5.208-.344-7.062z" opacity=".1" fill="#26c5da" data-original="#2626bc" style="" class=""></path><path d="m170.744 339.27c-2.045-1.857-5.208-1.702-7.063.344l-92.77 102.275c-1.855 2.046-1.701 5.208.344 7.062.958.869 2.16 1.297 3.358 1.297 1.361 0 2.718-.553 3.705-1.641l92.77-102.275c1.855-2.045 1.701-5.208-.344-7.062z" opacity=".1" fill="#26c5da" data-original="#2626bc" style="" class=""></path><path d="m154.669 383.365-10.707 11.805c-1.855 2.046-1.701 5.208.344 7.062.958.869 2.16 1.297 3.358 1.297 1.361 0 2.718-.553 3.705-1.641l10.707-11.805c1.855-2.046 1.701-5.208-.344-7.062-2.046-1.858-5.208-1.702-7.063.344z" opacity=".1" fill="#26c5da" data-original="#2626bc" style="" class=""></path><path d="m83.222 309.775c1.361 0 2.718-.553 3.705-1.641l10.707-11.804c1.855-2.045 1.701-5.207-.344-7.062-2.045-1.857-5.208-1.702-7.063.344l-10.707 11.803c-1.855 2.045-1.701 5.207.344 7.062.958.87 2.16 1.298 3.358 1.298z" opacity=".1" fill="#26c5da" data-original="#2626bc" style="" class=""></path><path d="m438.684 133.592-188.132 46.358v-31.172c0-34.518-27.458-63.29-61.974-63.738-35.07-.455-63.641 27.837-63.641 62.802 0 23.715 13.148 44.354 32.548 55.042l-57.86 14.258c-4.226 1.041-5.196 6.61-1.571 9.019l55.241 36.711-49.829 54.935c-1.855 2.046-1.701 5.208.344 7.062.958.869 2.16 1.297 3.358 1.297 1.361 0 2.718-.553 3.705-1.641l50.845-56.056 26.026 17.296.161-.095-.161.762 15.266 106.098c.604 4.2 5.836 5.785 8.67 2.628l39.526-44.033 36.413 42.276-75.47 83.204c-1.855 2.046-1.701 5.208.344 7.062 2.039 1.852 5.203 1.706 7.063-.344l74.639-82.287 15.911 18.474c2.384 2.767 6.834 2.128 8.342-1.198l125.985-277.801c1.725-3.801-1.695-7.918-5.749-6.919z" opacity=".1" fill="#26c5da" data-original="#2626bc" style="" class=""></path></g><g><g fill="#fff"><path d="m448.693 98.123-254.609 125.319-6.34 29.99 16.789 116.687z" fill="#ffffff" data-original="#ffffff" style="" class=""></path><path d="m227.217 290.269-22.684 79.85 46.673-51.993z" fill="#ffffff" data-original="#ffffff" style="" class=""></path><path d="m448.695 98.122-133.48 294.321-88-102.17z" fill="#ffffff" data-original="#ffffff" style="" class=""></path></g><g><path d="m297.096 313.363c-2.08 1.81-5.24 1.6-7.06-.48l-38.31-43.87 7.55-6.55 38.29 43.84c1.819 2.08 1.609 5.24-.47 7.06z" fill="#26c5da" data-original="#2626bc" style="" class=""></path></g><g><path d="m312.666 296.693c-2.08 1.82-5.24 1.6-7.06-.48l-36.74-42.07 7.55-6.56 36.72 42.05c1.819 2.08 1.609 5.239-.47 7.06z" fill="#26c5da" data-original="#2626bc" style="" class=""></path></g><g><path d="m328.235 280.023c-2.08 1.82-5.24 1.61-7.06-.47l-35.17-40.28 7.55-6.56 35.16 40.26c1.81 2.08 1.6 5.24-.48 7.05z" fill="#26c5da" data-original="#2626bc" style="" class=""></path></g><g><path d="m343.805 263.363c-2.08 1.81-5.24 1.6-7.06-.48l-33.6-38.48 7.55-6.55 33.59 38.45c1.811 2.08 1.6 5.24-.48 7.06z" fill="#26c5da" data-original="#2626bc" style="" class=""></path></g><g><path d="m359.375 246.693c-2.08 1.82-5.24 1.6-7.05-.48l-32.04-36.68 7.55-6.56 32.02 36.66c1.811 2.08 1.6 5.239-.48 7.06z" fill="#26c5da" data-original="#2626bc" style="" class=""></path></g><g><path d="m368.615 195.723c-2.08 1.82-5.24 1.6-7.06-.48l-10.69-12.24 7.55-6.56 10.68 12.23c1.811 2.08 1.6 5.23-.48 7.05z" fill="#26c5da" data-original="#2626bc" style="" class=""></path></g><path d="m187.744 252.765 260.949-154.642-360.115 88.74z" fill="#ffffff" data-original="#ffffff" style="" class=""></path></g><g><g><g><path d="m242.678 177.649h-54.933c-34.688 0-62.808-28.12-62.808-62.807 0-34.688 28.12-62.807 62.808-62.807 34.688 0 62.807 28.12 62.807 62.807v54.934c0 4.347-3.526 7.873-7.874 7.873z" fill="#78efff" data-original="#6583fe" style="" class=""></path></g></g><g fill="#2626bc"><circle cx="216.476" cy="114.841" r="9.33" fill="#26c5da" data-original="#2626bc" style="" class=""></circle><circle cx="187.744" cy="114.841" r="9.33" fill="#26c5da" data-original="#2626bc" style="" class=""></circle><circle cx="159.013" cy="114.841" r="9.33" fill="#26c5da" data-original="#2626bc" style="" class=""></circle></g></g><g fill="#6583fe"><path d="m303.145 89.476c-2.761 0-5-2.238-5-5 0-3.309-2.691-6-6-6-2.761 0-5-2.238-5-5s2.239-5 5-5c3.309 0 6-2.691 6-6 0-2.762 2.239-5 5-5s5 2.238 5 5c0 3.309 2.691 6 6 6 2.761 0 5 2.238 5 5s-2.239 5-5 5c-3.309 0-6 2.691-6 6 0 2.761-2.238 5-5 5z" fill="#78efff" data-original="#6583fe" style="" class=""></path><path d="m403.237 371.658c-2.761 0-5-2.238-5-5 0-3.309-2.692-6-6-6-2.761 0-5-2.238-5-5s2.239-5 5-5c3.309 0 6-2.691 6-6 0-2.762 2.239-5 5-5s5 2.238 5 5c0 3.309 2.691 6 6 6 2.761 0 5 2.238 5 5s-2.239 5-5 5c-3.308 0-6 2.691-6 6 0 2.762-2.239 5-5 5z" fill="#78efff" data-original="#6583fe" style="" class=""></path><path d="m374.927 408.441c-2.761 0-5-2.238-5-5 0-3.309-2.691-6-6-6-2.761 0-5-2.238-5-5s2.239-5 5-5c3.309 0 6-2.691 6-6 0-2.762 2.239-5 5-5s5 2.238 5 5c0 3.309 2.691 6 6 6 2.761 0 5 2.238 5 5s-2.239 5-5 5c-3.309 0-6 2.691-6 6 0 2.762-2.239 5-5 5z" fill="#78efff" data-original="#6583fe" style="" class=""></path><path d="m74.615 350.691c-1.326 0-2.598-.526-3.536-1.465l-11.31-11.311c-.938-.938-1.464-2.209-1.464-3.535s.527-2.598 1.464-3.535l11.31-11.31c1.953-1.953 5.119-1.952 7.071-.001l11.311 11.31c.938.938 1.465 2.21 1.465 3.536s-.527 2.598-1.464 3.535l-11.312 11.312c-.938.938-2.209 1.464-3.535 1.464zm-4.239-16.31 4.239 4.239 4.239-4.239-4.239-4.238z" fill="#78efff" data-original="#6583fe" style="" class=""></path><path d="m243.907 54.778c-1.28 0-2.559-.488-3.536-1.465l-11.31-11.31c-.938-.938-1.464-2.209-1.464-3.535s.527-2.598 1.464-3.535l11.31-11.311c.938-.938 2.21-1.465 3.536-1.465s2.598.526 3.536 1.465l11.311 11.311c.938.938 1.464 2.209 1.464 3.535s-.527 2.598-1.465 3.536l-11.31 11.31c-.977.976-2.257 1.464-3.536 1.464zm-4.239-16.309 4.239 4.238 4.239-4.238-4.239-4.239z" fill="#78efff" data-original="#6583fe" style="" class=""></path></g></g></g><g fill="#2626bc"><path d="m453.676 97.845c-.102-3.044-3.241-5.352-6.179-4.577l-191.945 47.3v-25.727c0-37.39-30.419-67.809-67.808-67.809s-67.808 30.419-67.808 67.809c0 21.364 9.942 40.44 25.431 52.878l-57.986 14.289c-1.926.475-3.389 2.042-3.729 3.996s.506 3.925 2.158 5.022l69.18 45.975-51.525 56.804c-1.855 2.046-1.701 5.208.344 7.062.957.869 2.16 1.297 3.358 1.297 1.361 0 2.718-.553 3.705-1.641l52.541-57.924 19.593 13.021 16.577 115.21c.508 4.123 6.031 5.753 8.708 2.585l42.351-48.287 37.57 43.619-76.064 83.857c-1.855 2.046-1.701 5.208.344 7.062.958.869 2.16 1.297 3.358 1.297 1.361 0 2.718-.553 3.705-1.641l75.232-82.941 16.641 19.321c2.241 2.755 6.973 2.066 8.342-1.197l18.687-41.205c1.141-2.516.026-5.479-2.489-6.619-2.516-1.141-5.478-.026-6.619 2.488l-15.454 34.076-79.642-92.466 200.436-173.893-91.46 201.675c-1.141 2.516-.026 5.479 2.489 6.619 2.514 1.139 5.478.025 6.619-2.488l100.907-222.506c.305-.74.477-1.536.432-2.341zm-296.802 77.338c9.267 4.76 19.755 7.465 30.87 7.465h9.759c2.761 0 5-2.238 5-5s-2.239-5-5-5h-9.759c-31.875 0-57.808-25.932-57.808-57.807 0-31.876 25.933-57.809 57.808-57.809s57.808 25.933 57.808 57.809v54.933c0 1.585-1.289 2.874-2.874 2.874h-11.514c-2.761 0-5 2.238-5 5s2.239 5 5 5h11.514c7.099 0 12.874-5.775 12.874-12.874v-18.908l161.478-39.792-229.134 135.789-87.076-57.867zm87.179 142.295-28.646 32.661 14.082-49.57zm-20.058-31.033c-.762.673-1.317 1.545-1.606 2.52l-16.251 57.205-13.058-90.755 210.399-124.686z" fill="#26c5da" data-original="#2626bc" style="" class=""></path><path d="m227.483 399.738c-2.046-1.857-5.208-1.702-7.063.344l-54.698 60.303c-1.855 2.046-1.701 5.208.344 7.062 2.039 1.852 5.203 1.706 7.063-.344l54.698-60.303c1.856-2.045 1.702-5.207-.344-7.062z" fill="#26c5da" data-original="#2626bc" style="" class=""></path><path d="m170.744 315.27c-2.046-1.857-5.208-1.702-7.063.344l-92.77 102.276c-1.855 2.046-1.701 5.208.344 7.062.957.869 2.16 1.297 3.358 1.297 1.361 0 2.718-.553 3.705-1.641l92.769-102.275c1.856-2.046 1.702-5.208-.343-7.063z" fill="#26c5da" data-original="#2626bc" style="" class=""></path><path d="m154.669 359.365-10.707 11.804c-1.855 2.045-1.701 5.207.344 7.062.957.869 2.16 1.297 3.358 1.297 1.361 0 2.718-.553 3.705-1.641l10.707-11.804c1.855-2.045 1.701-5.207-.344-7.062-2.046-1.857-5.208-1.702-7.063.344z" fill="#26c5da" data-original="#2626bc" style="" class=""></path><path d="m86.928 284.135 10.707-11.805c1.855-2.046 1.701-5.208-.344-7.062-2.046-1.857-5.208-1.702-7.063.344l-10.708 11.804c-1.855 2.046-1.701 5.208.344 7.062.958.869 2.16 1.297 3.358 1.297 1.362 0 2.719-.552 3.706-1.64z" fill="#26c5da" data-original="#2626bc" style="" class=""></path></g></g></g></svg>